<?xml version="1.0" standalone="no"?>
<!DOCTYPE svg PUBLIC "-//W3C//DTD SVG 20010904//EN"
 "http://www.w3.org/TR/2001/REC-SVG-20010904/DTD/svg10.dtd">
<svg version="1.0" xmlns="http://www.w3.org/2000/svg"
 width="96.000000pt" height="96.000000pt" viewBox="0 0 96.000000 96.000000"
 preserveAspectRatio="xMidYMid meet">

<g transform="translate(0.000000,96.000000) scale(0.100000,-0.100000)"
fill="#000000" stroke="none">
<path d="M337 662 c-22 -24 -21 -65 1 -85 16 -15 51 -17 280 -17 249 0 263 1
282 20 11 11 20 29 20 40 0 11 -9 29 -20 40 -19 19 -33 20 -283 20 -243 0
-265 -1 -280 -18z"/>
<path d="M217 422 c-22 -24 -21 -65 1 -85 16 -15 45 -17 204 -17 166 0 187 2
201 18 23 25 21 58 -3 82 -19 19 -33 20 -203 20 -165 0 -186 -2 -200 -18z"/>
<path d="M60 180 c-11 -11 -20 -29 -20 -40 0 -11 9 -29 20 -40 19 -19 33 -20
278 -20 284 0 302 3 302 59 0 59 -10 61 -298 61 -249 0 -263 -1 -282 -20z"/>
</g>
</svg>
