<?xml version="1.0" standalone="no"?>
<!DOCTYPE svg PUBLIC "-//W3C//DTD SVG 20010904//EN"
 "http://www.w3.org/TR/2001/REC-SVG-20010904/DTD/svg10.dtd">
<svg version="1.0" xmlns="http://www.w3.org/2000/svg"
 width="120.000000pt" height="120.000000pt" viewBox="0 0 120.000000 120.000000"
 preserveAspectRatio="xMidYMid meet">

<g transform="translate(0.000000,120.000000) scale(0.100000,-0.100000)"
fill="#000000" stroke="none">
<path d="M571 1146 c-8 -9 -11 -43 -9 -92 2 -60 7 -79 21 -88 12 -8 22 -8 35
0 13 9 18 28 20 88 3 81 -6 106 -38 106 -10 0 -23 -6 -29 -14z"/>
<path d="M206 994 c-25 -24 -20 -36 43 -98 46 -45 63 -57 79 -52 12 4 24 16
28 28 5 16 -7 33 -52 79 -62 63 -74 68 -98 43z"/>
<path d="M896 951 c-45 -46 -57 -63 -52 -79 4 -12 16 -24 28 -28 16 -5 33 7
79 52 63 62 68 74 43 98 -24 25 -36 20 -98 -43z"/>
<path d="M506 864 c-68 -21 -149 -103 -169 -170 l-14 -49 -113 -5 c-93 -4
-115 -8 -124 -22 -8 -13 -8 -23 0 -35 10 -16 39 -18 294 -23 255 -5 284 -7
294 -22 8 -13 8 -23 0 -35 -10 -16 -34 -19 -194 -23 -160 -4 -184 -7 -194 -22
-8 -13 -8 -23 0 -35 10 -16 36 -18 258 -21 l248 -2 29 31 c32 34 59 112 59
169 0 152 -132 282 -284 279 -23 0 -63 -7 -90 -15z"/>
<path d="M972 628 c-6 -6 -12 -20 -12 -29 0 -31 25 -40 106 -37 60 2 79 7 88
21 8 12 8 22 0 35 -9 13 -28 18 -90 20 -53 2 -83 -1 -92 -10z"/>
<path d="M856 344 c-25 -24 -20 -36 43 -98 46 -45 63 -57 79 -52 12 4 24 16
28 28 5 16 -7 33 -52 79 -62 63 -74 68 -98 43z"/>
<path d="M172 308 c-16 -16 -15 -43 2 -57 9 -8 84 -11 251 -9 214 3 239 5 249
20 8 13 8 23 0 35 -10 16 -35 18 -250 21 -178 2 -243 -1 -252 -10z"/>
<path d="M562 109 c6 -96 70 -96 76 0 l3 51 -41 0 -41 0 3 -51z"/>
</g>
</svg>
